# xmcd CD database file
#
# Track frame offsets:
#	150
#	13862
#	25514
#	40740
#	56268
#	71558
#	87459
#	102750
#	115999
#	131231
#	146354
#	174426
#	188039
#	202938
#	217559
#	230971
#
# Disc length: 3260 seconds
#
# Revision: 0
# Processed by: cddbd v1.5.1PL0 Copyright (c) Steve Scherf et al.
# Submitted via: CDex 1.50
#
DISCID=d40cba10
DTITLE=Louis Armstrong - On The Sunny Side Of The Street
DYEAR=2004
DGENRE=Jazz
TTITLE0=Struttin' With Some Barbeque
TTITLE1=Alexander's Rag Time Band
TTITLE2=Gully Low Blues
TTITLE3=West End Blues
TTITLE4=Georgia On My Mind
TTITLE5=I Can't Give You Anything But Love
TTITLE6=Basin Street Blues
TTITLE7=On The Sunny Side Of The Street
TTITLE8=Beau Koo Jack
TTITLE9=Rockin Chair
TTITLE10=Muskrat Ramble
TTITLE11=St. Louis Blues
TTITLE12=Wolverine Blues
TTITLE13=Tiger Rag
TTITLE14=You Rascal, You
TTITLE15=Potatoe Head Blues
EXTD=YEAR: 2004
EXTT0=
EXTT1=
EXTT2=
EXTT3=
EXTT4=
EXTT5=
EXTT6=
EXTT7=
EXTT8=
EXTT9=
EXTT10=
EXTT11=
EXTT12=
EXTT13=
EXTT14=
EXTT15=
PLAYORDER=
